<svg width="16" height="16" viewBox="0 0 16 16" fill="none" xmlns="http://www.w3.org/2000/svg">
<rect width="16" height="16" rx="2" fill="black"/>
<path d="M8.42624 2.11831C8.29573 2.09756 8.42866 2.11935 8.29573 2.09756C8.2087 2.07562 8.29573 2.09756 8.2087 2.07561C8.1567 2.05769 8.15995 2.05641 8.10029 2.04071C7.98096 2.01005 7.92303 2.00183 7.81321 2.00033C7.71724 1.99959 7.7494 2.00033 7.69138 2.00033C7.69138 2.00033 7.68654 2.00033 7.61402 2.00033L7.56688 2.00319L7.5149 2.00842C7.4859 2.01155 7.49194 2.01146 7.46656 2.01603C7.41027 2.02618 7.40975 2.02545 7.34206 2.04071C7.17768 2.09965 7.34085 2.03966 7.17768 2.09965C7.10637 2.12996 7.10504 2.12967 6.96064 2.12519C6.87072 2.1222 6.78771 2.12444 6.68481 2.13341C6.49026 2.14986 6.46951 2.15509 6.41935 2.19846C6.37266 2.23957 6.36401 2.265 6.37353 2.33826C6.38131 2.39957 6.38131 2.39434 6.37353 2.48629C6.36574 2.57899 6.38044 2.65152 6.42973 2.75619C6.52139 2.94982 6.72286 3.19205 6.79289 3.19205C6.83786 3.19205 6.84996 3.17336 6.85602 3.08739C6.85861 3.06047 6.86466 3.02458 6.87158 3.00664C6.89147 2.94982 6.93989 2.94534 6.97361 2.99842C6.98485 3.01561 7.01771 3.05001 7.04625 3.07393C7.08861 3.11056 7.12061 3.12776 7.23042 3.17411C7.35753 3.22719 7.46734 3.29 7.52268 3.34084C7.53652 3.35354 7.54603 3.36551 7.54344 3.3685C7.53998 3.37074 7.48118 3.36027 7.41114 3.34532C7.18286 3.29598 7.07737 3.29747 6.68222 3.3528C6.42108 3.38943 6.34067 3.39317 6.22653 3.37448C6.07867 3.35055 6.06829 3.3513 6.0242 3.38345C5.9775 3.41709 5.99134 3.44251 6.08645 3.49784C6.26285 3.60101 6.53522 3.63091 6.74361 3.57035C6.79289 3.55615 6.80154 3.5554 6.79635 3.56512C6.79376 3.57185 6.78511 3.60325 6.77733 3.63465C6.75312 3.73184 6.78165 3.80362 6.85602 3.83651C6.88542 3.84922 6.91568 3.85296 7.01771 3.85744C7.14914 3.86417 7.2114 3.87763 7.31343 3.92174C7.39644 3.95763 7.44919 4.01594 7.46216 4.08622C7.46994 4.1236 7.46994 4.12286 7.32294 4.43685C7.19497 4.70898 7.14395 4.80096 7.00561 5.00356C6.87158 5.20167 6.8785 5.18973 6.65887 5.56578C6.42022 5.97547 6.36142 6.05623 6.2101 6.18631C6.06397 6.31191 5.91265 6.39715 5.74058 6.44948L5.67314 6.47041H5.30565C5.10331 6.47041 4.87939 6.47219 4.76266 6.46995C4.6563 6.47831 4.65871 6.4804 4.60432 6.48876C4.58271 6.49773 4.42195 6.5048 4.40552 6.51677C4.35587 6.52337 4.35587 6.52128 4.26884 6.54741C4.19108 6.57876 4.19627 6.58106 4.16514 6.6177C4.12363 6.66629 4.13228 6.69096 4.19108 6.69096C4.26717 6.69096 4.2689 6.70966 4.19886 6.76946C4.13228 6.82628 4.06484 6.91002 4.03198 6.97805C4.01036 7.02067 4.00431 7.04459 4.00171 7.09992C3.99826 7.16944 3.99826 7.16945 4.01901 7.16945C4.03198 7.16945 4.05187 7.15898 4.07002 7.14253C4.09942 7.11637 4.23137 7.04278 4.20751 7.0573C4.23137 7.04278 4.23016 7.04278 4.26285 7.04278C4.27972 7.0573 4.28582 7.0573 4.30695 7.08981C4.33411 7.13161 4.3329 7.12848 4.33895 7.16088C4.33169 7.20268 4.33049 7.20164 4.31646 7.23225C4.30262 7.25318 4.27841 7.29056 4.26285 7.31598C4.22912 7.36832 4.20405 7.44682 4.21097 7.47298C4.21443 7.48345 4.22653 7.49541 4.23777 7.4999C4.25679 7.50737 4.26458 7.50438 4.30695 7.47523C4.33375 7.45728 4.37007 7.43336 4.3865 7.4214C4.40379 7.41018 4.428 7.40121 4.44097 7.40121C4.47296 7.40121 4.5456 7.42364 4.54992 7.43485C4.55251 7.44009 4.54646 7.45728 4.53695 7.47298C4.51447 7.50887 4.51447 7.50962 4.53609 7.52831C4.55943 7.54849 4.6018 7.547 4.64244 7.52606C4.6727 7.51036 4.67505 7.50096 4.77771 7.46708C4.88036 7.43319 4.88045 7.43485 4.92033 7.4214C4.96814 7.40527 4.96935 7.40551 5.02132 7.38879C5.13198 7.34468 5.13596 7.35192 5.14461 7.34594C5.22076 7.31911 5.20187 7.32476 5.24251 7.31354C5.29986 7.28951 5.29812 7.29251 5.34284 7.28159C5.39602 7.26861 5.39602 7.26861 5.45162 7.27279C5.54711 7.27697 5.54711 7.27697 5.60754 7.27697C5.74171 7.2916 5.74292 7.29264 5.86379 7.30414C5.99433 7.33131 5.99191 7.33027 6.15146 7.37102C6.23781 7.39715 6.23902 7.39715 6.29946 7.42014C6.35989 7.44313 6.36231 7.44759 6.36231 7.49539C6.34485 7.54033 6.34642 7.54033 6.31275 7.57168C6.23419 7.64484 6.23177 7.64588 5.98529 7.81913C5.9213 7.86249 5.82446 7.95072 5.78641 8.00081C5.74491 8.05389 5.72329 8.11221 5.71291 8.19744C5.69908 8.30135 5.69994 8.31107 5.72588 8.33201C5.76133 8.36042 5.81494 8.35817 5.86769 8.32453L5.90833 8.29911L5.90141 8.33799C5.88931 8.40901 5.8772 8.61536 5.88325 8.65349C5.8919 8.70806 5.9066 8.70582 5.9948 8.63555C6.0363 8.6019 6.07348 8.57499 6.07694 8.57499C6.08818 8.57499 6.10115 8.61087 6.10115 8.64153C6.10115 8.67592 6.1219 8.69461 6.15995 8.69461C6.18243 8.69461 6.19454 8.68638 6.2395 8.63928C6.28273 8.59368 6.30176 8.58097 6.35191 8.56078C6.40638 8.5391 6.41503 8.53761 6.4427 8.54508C6.47642 8.5548 6.47556 8.55406 6.47296 8.61237C6.47123 8.66246 6.48334 8.69162 6.50842 8.69835C6.53522 8.70582 6.56721 8.68264 6.58451 8.64227C6.59921 8.60714 6.58296 8.65102 6.65065 8.47986C6.699 8.40852 6.71854 8.3514 6.74977 8.29488C6.78844 8.22486 6.78971 8.21993 6.87426 8.14125C6.90798 8.11957 6.9486 8.15066 6.96371 8.16633C6.99392 8.19769 7.035 8.25949 7.0497 8.30958C7.07651 8.40004 7.06527 8.732 7.02636 9.04001C7.01166 9.14916 7.00906 9.22468 7.00906 9.46467V9.75624L6.97361 9.81829C6.95372 9.85193 6.88628 9.95361 6.82316 10.0441C6.59056 10.379 6.56289 10.4351 6.39168 10.9285C6.26198 11.3016 6.27063 11.2672 6.22221 11.5797C6.18589 11.8122 6.17638 11.9199 6.16168 12.272C6.15649 12.3909 6.14871 12.5374 6.14439 12.5972C6.14006 12.657 6.1366 12.7438 6.1366 12.7901C6.13574 12.9202 6.12623 12.9292 5.96453 12.9524C5.86423 12.9673 5.8331 12.9621 5.81149 12.9269C5.73932 12.8428 5.73626 12.8462 5.60829 12.7542C5.53072 12.7114 5.53072 12.7114 5.47029 12.6936C5.43282 12.6852 5.43403 12.6852 5.38152 12.6852C5.34579 12.6905 5.34579 12.6905 5.32108 12.7092C5.29207 12.7343 5.29087 12.7343 5.26674 12.7916C5.25723 12.8193 5.25463 12.8454 5.25809 12.8716L5.26328 12.9105L5.23527 12.9246C5.21109 12.9372 5.21283 12.936 5.19591 12.9444C5.16449 12.9601 5.13998 12.9601 5.11372 12.9967C5.07021 13.0573 5.07746 13.0531 5.06354 13.0989C5.06658 13.1754 5.07988 13.1973 5.10284 13.2465L5.12061 13.2813L5.04711 13.3411C4.96842 13.4054 4.93725 13.4325 4.92033 13.4691C4.91549 13.4962 4.9167 13.4994 4.93363 13.5258C4.94824 13.5487 4.95175 13.5495 4.97351 13.5694L4.99715 13.5875L5.02548 13.607L5.03636 13.6143L5.03878 13.6156C5.09075 13.6457 5.09317 13.6459 5.13497 13.6632C5.15313 13.6684 5.16328 13.6719 5.17899 13.6833C5.18929 13.6947 5.20075 13.7063 5.21109 13.7403C5.23163 13.7735 5.23217 13.7756 5.2679 13.8153C5.3337 13.8446 5.33733 13.8422 5.39777 13.86C5.43765 13.8662 5.43765 13.8669 5.52898 13.8764C5.57111 13.8808 5.57424 13.8809 5.60204 13.8809C5.64743 13.8809 5.65468 13.8809 5.71149 13.8885C5.90488 13.9188 5.9073 13.9135 6.0541 13.9376C6.4355 13.9637 6.64417 13.9415 6.80586 13.8764C6.8344 13.8652 6.8785 13.8413 6.90357 13.8241C7.03241 13.7351 7.19151 13.4749 7.22696 13.2933C7.23215 13.2641 7.2382 13.0839 7.24166 12.8514L7.25621 12.5048L7.26346 12.4661L7.27192 12.4261C7.29126 12.3885 7.2961 12.3741 7.31516 12.3662C7.32467 12.358 7.39212 12.3228 7.46475 12.2877C7.61607 12.2144 7.9628 12.026 8.02074 11.9857C8.04235 11.9707 8.08732 11.9378 8.12104 11.9124C8.18849 11.8616 8.21788 11.8518 8.2689 11.8638C8.3398 11.8803 8.34153 11.8832 8.43319 12.0814C8.46864 12.1576 8.52052 12.2563 8.54906 12.3019C8.63985 12.444 8.80673 12.6541 8.89406 12.7348C8.98745 12.8215 9.01166 12.8611 9.02463 12.9509C9.03241 13.0062 9.03155 13.0189 9.01944 13.0413C8.99437 13.0862 8.94075 13.1056 8.8906 13.0877C8.86553 13.0787 8.82841 13.0413 8.79972 13.0012C8.73325 12.9082 8.65831 12.858 8.65831 12.858C8.65831 12.858 8.6293 12.835 8.54469 12.8043C8.43832 12.7702 8.35734 12.8043 8.35734 12.8043L8.32712 12.8152C8.31504 12.8225 8.31624 12.8214 8.30174 12.835C8.27707 12.858 8.2824 12.8789 8.2824 12.928L8.28603 12.9573L8.28965 12.9897L8.24493 12.9834C8.17603 12.9771 8.11923 12.9991 8.11923 12.9991C8.08559 13.0179 8.08244 13.0274 8.08559 13.0593C8.0878 13.0817 8.08713 13.0809 8.08955 13.1024C8.09587 13.1586 8.09922 13.1593 8.11439 13.2227C8.11439 13.2227 8.12363 13.2677 8.13373 13.3137V13.3568L8.13185 13.3662L8.0968 13.3913C8.0412 13.4373 8.03997 13.4397 7.98318 13.5234C7.96626 13.5526 7.96694 13.5605 7.99406 13.584C8.02307 13.609 8.03032 13.6132 8.06295 13.6394C8.09037 13.6613 8.09605 13.6655 8.10768 13.6812C8.12581 13.7056 8.12702 13.7056 8.14219 13.7419C8.14998 13.7756 8.15065 13.7764 8.15845 13.8055C8.1651 13.8304 8.16274 13.8286 8.17174 13.8609C8.18382 13.8829 8.18382 13.8839 8.20559 13.9077C8.24262 13.9312 8.20559 13.9077 8.24668 13.9327C8.34163 13.9906 8.3247 13.9833 8.40931 14C8.53381 14 8.54733 13.9983 8.62515 13.9512C8.64849 13.937 8.66233 13.9355 8.78771 13.9355C8.88628 13.9355 8.94598 13.9355 9.12849 13.9415C9.25903 13.9415 9.3547 13.9415 9.43188 13.9415C9.71376 13.94 9.66968 13.9489 9.77258 13.9123C9.88239 13.8727 9.93686 13.8129 9.97491 13.6918C10.0017 13.6073 10.0086 13.3867 9.98788 13.2551C9.9801 13.2036 9.96972 13.1393 9.96626 13.1116C9.96194 13.0847 9.95416 13.0122 9.94897 12.9509C9.9334 12.758 9.90919 12.6705 9.79852 12.4043C9.69648 12.1606 9.67919 12.0761 9.68005 11.8421C9.68178 11.5887 9.69389 11.4264 9.71983 11.3375C9.75615 11.2111 9.7622 11.1289 9.75096 10.9547C9.73972 10.7857 9.74145 10.7805 9.78727 10.7805C9.85213 10.7805 9.92476 10.7289 9.96453 10.6549C9.98356 10.619 9.98529 10.607 9.98096 10.5502C9.9775 10.4949 9.96713 10.4605 9.91525 10.3274C9.81321 10.065 9.81149 10.0403 9.87028 9.69195C9.936 9.30543 9.95762 9.04972 9.95762 8.67741C9.95762 8.3223 9.94119 8.08827 9.8919 7.76007C9.83915 7.40047 9.74404 6.99598 9.63336 6.65732L9.6246 6.59377L9.6152 6.53106V6.40313C9.64979 6.00689 9.66881 5.5583 9.66103 5.30859C9.65411 5.07758 9.61693 4.90935 9.51577 4.6574C9.31343 4.15202 9.30046 4.11313 9.26155 3.91352C9.23302 3.76101 9.20102 3.65109 9.13185 3.46868C9.07046 3.30495 9.03933 3.19205 9.02031 3.06496C9.00301 2.94833 8.99437 2.82497 9.00128 2.79357C9.00474 2.77936 9.02636 2.74422 9.05057 2.71656C9.07478 2.68815 9.10245 2.65002 9.11196 2.63133C9.1405 2.57601 9.16384 2.46237 9.16038 2.40256C9.15087 2.27621 9.03846 2.18948 8.84996 2.16332C8.80587 2.15734 8.77435 2.15593 8.75501 2.1528C8.6074 2.14007 8.7538 2.15299 8.59788 2.13712C8.44195 2.12125 8.59788 2.13712 8.42624 2.11831ZM7.5149 2.24331C7.50798 2.26051 7.50193 2.2949 7.50193 2.32032C7.50193 2.35845 7.50625 2.37265 7.52701 2.40106C7.55641 2.44069 7.58408 2.45938 7.61347 2.45938C7.62558 2.45938 7.67573 2.44517 7.72588 2.42872C7.789 2.40704 7.8357 2.39658 7.87634 2.39359C7.93254 2.38985 7.93427 2.3906 7.93427 2.40704C7.93427 2.44816 7.85385 2.53713 7.7916 2.56629C7.74058 2.59021 7.59705 2.58946 7.52355 2.56405C7.41373 2.52741 7.35894 2.47883 7.38488 2.36744C7.39585 2.32032 7.39696 2.32032 7.41026 2.27756C7.43927 2.24331 7.43751 2.24331 7.4881 2.22387C7.52701 2.20892 7.52787 2.20967 7.5149 2.24331ZM7.24339 3.51802C7.37223 3.53895 7.49934 3.59353 7.52441 3.63914C7.53652 3.66157 7.53652 3.6653 7.52441 3.6825C7.51577 3.69222 7.50193 3.70044 7.49069 3.70044C7.45783 3.70044 7.25809 3.67054 7.2088 3.65858C7.15779 3.64587 7.07737 3.61222 7.04625 3.59054C7.02549 3.57559 6.98312 3.52924 6.98312 3.52026C6.98312 3.50382 7.14741 3.50232 7.24339 3.51802Z" fill="white"/>
</svg>
